<svg width="24" height="24" viewBox="0 0 24 24" fill="none" xmlns="http://www.w3.org/2000/svg">
<path d="M12 2.37024C8.88357 2.37024 6.34814 4.89652 6.34814 8.00166C6.34814 11.1068 8.88357 13.6331 12 13.6331C15.1164 13.6331 17.6519 11.1068 17.6519 8.00171C17.6519 4.89657 15.1164 2.37024 12 2.37024ZM12 12.6956C9.4005 12.6956 7.28564 10.59 7.28564 8.00171C7.28564 5.41346 9.4005 3.30774 12 3.30774C14.5995 3.30774 16.7144 5.41341 16.7144 8.00166C16.7144 10.5899 14.5995 12.6956 12 12.6956Z" fill="white"/>
<path d="M14.7156 6.96107L13.202 6.6119L12.4011 5.28642C12.3162 5.14593 12.164 5.06006 11.9999 5.06006C11.8358 5.06006 11.6836 5.14593 11.5987 5.28642L10.7979 6.6119L9.28427 6.96107C9.12382 6.99811 8.99454 7.11656 8.94377 7.27321C8.89296 7.42982 8.92811 7.60167 9.03625 7.72579L10.0539 8.8935L9.91971 10.4336C9.90546 10.5973 9.97797 10.7565 10.1109 10.8532C10.2437 10.9499 10.4176 10.97 10.5689 10.9061L11.9999 10.3023L13.4309 10.9062C13.4895 10.9309 13.5514 10.9431 13.6131 10.9431C13.7108 10.9431 13.8076 10.9126 13.889 10.8533C14.0219 10.7566 14.0944 10.5974 14.0802 10.4336L13.946 8.89354L14.9636 7.72584C15.0718 7.60172 15.1069 7.42987 15.0561 7.27326C15.0053 7.11661 14.876 6.99811 14.7156 6.96107ZM13.1083 8.42775C13.0247 8.52375 12.9836 8.64961 12.9947 8.7764L13.0787 9.73996L12.1822 9.36164C12.1239 9.33707 12.0619 9.32475 11.9999 9.32475C11.9379 9.32475 11.8759 9.33703 11.8177 9.36164L10.9212 9.73996L11.0051 8.7764C11.0162 8.64956 10.9752 8.5237 10.8916 8.42775L10.2564 7.69898L11.2018 7.48087C11.3254 7.45237 11.4321 7.37503 11.4977 7.26651L11.9999 6.43532L12.5021 7.26651C12.5677 7.37503 12.6745 7.45237 12.798 7.48087L13.7434 7.69898L13.1083 8.42775Z" fill="white"/>
<path d="M20.0314 15.5631V8.00166C20.0314 3.58955 16.4286 0 12 0C7.57134 0 3.96848 3.58955 3.96848 8.00166V15.5631C3.27384 15.7662 2.76501 16.4085 2.76501 17.1675C2.76501 18.0891 3.51516 18.8388 4.43723 18.8388C5.35931 18.8388 6.10945 18.0891 6.10945 17.1675C6.10945 16.4085 5.60062 15.7662 4.90598 15.5631V11.7509C6.03956 13.8713 8.10305 15.4265 10.5506 15.8727V17.4731H10.3948C10.1359 17.4731 9.92606 17.683 9.92606 17.9419V21.9268C9.92606 23.07 10.8561 24 11.9993 24H12.0006C13.1437 24 14.0738 23.07 14.0738 21.9268V17.9419C14.0738 17.683 13.8639 17.4731 13.605 17.4731H13.4493V15.8727C15.8968 15.4265 17.9603 13.8713 19.0939 11.7509V15.5631C18.3992 15.7662 17.8904 16.4085 17.8904 17.1675C17.8904 18.0891 18.6405 18.8388 19.5626 18.8388C20.4847 18.8388 21.2348 18.0891 21.2348 17.1675C21.2349 16.4085 20.7261 15.7661 20.0314 15.5631ZM5.17195 17.1675C5.17195 17.5721 4.84237 17.9013 4.43723 17.9013C4.03209 17.9013 3.70251 17.5721 3.70251 17.1675C3.70251 16.7629 4.03209 16.4337 4.43723 16.4337C4.84237 16.4337 5.17195 16.7629 5.17195 17.1675ZM13.1363 21.9268C13.1363 22.553 12.6269 23.0625 12.0006 23.0625H11.9993C11.3731 23.0625 10.8636 22.553 10.8636 21.9268V18.4106H13.1363V21.9268ZM12.5118 17.4731H11.4881V15.9872C11.6573 15.9978 11.828 16.0033 12 16.0033C12.1719 16.0033 12.3426 15.9978 12.5118 15.9872V17.4731ZM12 15.0658C8.08833 15.0658 4.90598 11.8968 4.90598 8.00161C4.90598 4.10639 8.08833 0.9375 12 0.9375C15.9116 0.9375 19.0939 4.10644 19.0939 8.00166C19.0939 11.8969 15.9116 15.0658 12 15.0658ZM19.5627 17.9013C19.1575 17.9013 18.828 17.5721 18.828 17.1675C18.828 16.7629 19.1575 16.4337 19.5627 16.4337C19.9678 16.4337 20.2974 16.7629 20.2974 17.1675C20.2974 17.5721 19.9678 17.9013 19.5627 17.9013Z" fill="white"/>
</svg>
